<mxfile host="app.diagrams.net" modified="2022-10-06T17:50:33.050Z" agent="5.0 (Windows NT 10.0; Win64; x64) AppleWebKit/537.36 (KHTML, like Gecko) Chrome/105.0.0.0 Safari/537.36" etag="Rzd9omydFf9hiZq9CAst" version="20.4.0" type="github">
  <diagram id="C5RBs43oDa-KdzZeNtuy" name="Page-1">
    <mxGraphModel dx="1384" dy="652" grid="1" gridSize="10" guides="1" tooltips="1" connect="1" arrows="1" fold="1" page="1" pageScale="1" pageWidth="827" pageHeight="1169" math="0" shadow="0">
      <root>
        <mxCell id="WIyWlLk6GJQsqaUBKTNV-0" />
        <mxCell id="WIyWlLk6GJQsqaUBKTNV-1" parent="WIyWlLk6GJQsqaUBKTNV-0" />
        <mxCell id="URycCvteFa-Bju452KM6-3" value="" style="edgeStyle=orthogonalEdgeStyle;rounded=0;orthogonalLoop=1;jettySize=auto;html=1;" edge="1" parent="WIyWlLk6GJQsqaUBKTNV-1" source="URycCvteFa-Bju452KM6-1" target="URycCvteFa-Bju452KM6-2">
          <mxGeometry relative="1" as="geometry" />
        </mxCell>
        <mxCell id="URycCvteFa-Bju452KM6-1" value="Start main.c" style="ellipse;whiteSpace=wrap;html=1;" vertex="1" parent="WIyWlLk6GJQsqaUBKTNV-1">
          <mxGeometry x="54" y="30" width="80" height="40" as="geometry" />
        </mxCell>
        <mxCell id="URycCvteFa-Bju452KM6-5" value="" style="edgeStyle=orthogonalEdgeStyle;rounded=0;orthogonalLoop=1;jettySize=auto;html=1;" edge="1" parent="WIyWlLk6GJQsqaUBKTNV-1" source="URycCvteFa-Bju452KM6-2" target="URycCvteFa-Bju452KM6-4">
          <mxGeometry relative="1" as="geometry" />
        </mxCell>
        <mxCell id="URycCvteFa-Bju452KM6-2" value="initialize Time on and Time off =0" style="rounded=1;whiteSpace=wrap;html=1;" vertex="1" parent="WIyWlLk6GJQsqaUBKTNV-1">
          <mxGeometry x="34" y="120" width="120" height="60" as="geometry" />
        </mxCell>
        <mxCell id="URycCvteFa-Bju452KM6-7" value="Yes" style="edgeStyle=orthogonalEdgeStyle;rounded=0;orthogonalLoop=1;jettySize=auto;html=1;" edge="1" parent="WIyWlLk6GJQsqaUBKTNV-1" source="URycCvteFa-Bju452KM6-4" target="URycCvteFa-Bju452KM6-6">
          <mxGeometry relative="1" as="geometry" />
        </mxCell>
        <mxCell id="URycCvteFa-Bju452KM6-10" value="NO" style="edgeStyle=orthogonalEdgeStyle;rounded=0;orthogonalLoop=1;jettySize=auto;html=1;" edge="1" parent="WIyWlLk6GJQsqaUBKTNV-1" source="URycCvteFa-Bju452KM6-4" target="URycCvteFa-Bju452KM6-9">
          <mxGeometry relative="1" as="geometry" />
        </mxCell>
        <mxCell id="URycCvteFa-Bju452KM6-4" value="is switch 1 pressed ?" style="rhombus;whiteSpace=wrap;html=1;" vertex="1" parent="WIyWlLk6GJQsqaUBKTNV-1">
          <mxGeometry x="49" y="210" width="90" height="80" as="geometry" />
        </mxCell>
        <mxCell id="URycCvteFa-Bju452KM6-8" style="edgeStyle=orthogonalEdgeStyle;rounded=0;orthogonalLoop=1;jettySize=auto;html=1;" edge="1" parent="WIyWlLk6GJQsqaUBKTNV-1" source="URycCvteFa-Bju452KM6-6">
          <mxGeometry relative="1" as="geometry">
            <mxPoint x="94" y="190" as="targetPoint" />
            <Array as="points">
              <mxPoint x="304" y="190" />
            </Array>
          </mxGeometry>
        </mxCell>
        <mxCell id="URycCvteFa-Bju452KM6-6" value="increment Time on value" style="rounded=1;whiteSpace=wrap;html=1;" vertex="1" parent="WIyWlLk6GJQsqaUBKTNV-1">
          <mxGeometry x="244" y="220" width="120" height="60" as="geometry" />
        </mxCell>
        <mxCell id="URycCvteFa-Bju452KM6-12" value="Yes" style="edgeStyle=orthogonalEdgeStyle;rounded=0;orthogonalLoop=1;jettySize=auto;html=1;" edge="1" parent="WIyWlLk6GJQsqaUBKTNV-1" source="URycCvteFa-Bju452KM6-9" target="URycCvteFa-Bju452KM6-11">
          <mxGeometry relative="1" as="geometry" />
        </mxCell>
        <mxCell id="URycCvteFa-Bju452KM6-29" value="NO" style="edgeStyle=orthogonalEdgeStyle;rounded=0;orthogonalLoop=1;jettySize=auto;html=1;exitX=0.5;exitY=1;exitDx=0;exitDy=0;" edge="1" parent="WIyWlLk6GJQsqaUBKTNV-1" source="URycCvteFa-Bju452KM6-9">
          <mxGeometry relative="1" as="geometry">
            <mxPoint x="410" y="360" as="targetPoint" />
            <Array as="points">
              <mxPoint x="94" y="420" />
              <mxPoint x="410" y="420" />
            </Array>
          </mxGeometry>
        </mxCell>
        <mxCell id="URycCvteFa-Bju452KM6-9" value="is switch 2 pressed ?" style="rhombus;whiteSpace=wrap;html=1;" vertex="1" parent="WIyWlLk6GJQsqaUBKTNV-1">
          <mxGeometry x="54" y="320" width="80" height="80" as="geometry" />
        </mxCell>
        <mxCell id="URycCvteFa-Bju452KM6-13" style="edgeStyle=orthogonalEdgeStyle;rounded=0;orthogonalLoop=1;jettySize=auto;html=1;" edge="1" parent="WIyWlLk6GJQsqaUBKTNV-1" source="URycCvteFa-Bju452KM6-11">
          <mxGeometry relative="1" as="geometry">
            <mxPoint x="304" y="190" as="targetPoint" />
            <Array as="points">
              <mxPoint x="414" y="360" />
              <mxPoint x="414" y="190" />
            </Array>
          </mxGeometry>
        </mxCell>
        <mxCell id="URycCvteFa-Bju452KM6-11" value="increment Time Off value" style="rounded=1;whiteSpace=wrap;html=1;" vertex="1" parent="WIyWlLk6GJQsqaUBKTNV-1">
          <mxGeometry x="224" y="330" width="120" height="60" as="geometry" />
        </mxCell>
        <mxCell id="URycCvteFa-Bju452KM6-15" value="" style="edgeStyle=orthogonalEdgeStyle;rounded=0;orthogonalLoop=1;jettySize=auto;html=1;" edge="1" parent="WIyWlLk6GJQsqaUBKTNV-1" source="URycCvteFa-Bju452KM6-16" target="URycCvteFa-Bju452KM6-18">
          <mxGeometry relative="1" as="geometry" />
        </mxCell>
        <mxCell id="URycCvteFa-Bju452KM6-16" value="Start Timer ISR" style="ellipse;whiteSpace=wrap;html=1;" vertex="1" parent="WIyWlLk6GJQsqaUBKTNV-1">
          <mxGeometry x="467" width="80" height="40" as="geometry" />
        </mxCell>
        <mxCell id="URycCvteFa-Bju452KM6-41" value="" style="edgeStyle=orthogonalEdgeStyle;rounded=0;orthogonalLoop=1;jettySize=auto;html=1;" edge="1" parent="WIyWlLk6GJQsqaUBKTNV-1" source="URycCvteFa-Bju452KM6-18" target="URycCvteFa-Bju452KM6-40">
          <mxGeometry relative="1" as="geometry" />
        </mxCell>
        <mxCell id="URycCvteFa-Bju452KM6-18" value="initialize counter=0" style="rounded=1;whiteSpace=wrap;html=1;" vertex="1" parent="WIyWlLk6GJQsqaUBKTNV-1">
          <mxGeometry x="445.5" y="60" width="120" height="60" as="geometry" />
        </mxCell>
        <mxCell id="URycCvteFa-Bju452KM6-19" value="Yes" style="edgeStyle=orthogonalEdgeStyle;rounded=0;orthogonalLoop=1;jettySize=auto;html=1;" edge="1" parent="WIyWlLk6GJQsqaUBKTNV-1" source="URycCvteFa-Bju452KM6-21" target="URycCvteFa-Bju452KM6-23">
          <mxGeometry relative="1" as="geometry" />
        </mxCell>
        <mxCell id="URycCvteFa-Bju452KM6-35" value="No" style="edgeStyle=orthogonalEdgeStyle;rounded=0;orthogonalLoop=1;jettySize=auto;html=1;" edge="1" parent="WIyWlLk6GJQsqaUBKTNV-1" source="URycCvteFa-Bju452KM6-21" target="URycCvteFa-Bju452KM6-30">
          <mxGeometry relative="1" as="geometry" />
        </mxCell>
        <mxCell id="URycCvteFa-Bju452KM6-21" value="is counter value &amp;lt; Time ON value" style="rhombus;whiteSpace=wrap;html=1;" vertex="1" parent="WIyWlLk6GJQsqaUBKTNV-1">
          <mxGeometry x="451.5" y="270" width="108" height="120" as="geometry" />
        </mxCell>
        <mxCell id="URycCvteFa-Bju452KM6-22" style="edgeStyle=orthogonalEdgeStyle;rounded=0;orthogonalLoop=1;jettySize=auto;html=1;" edge="1" parent="WIyWlLk6GJQsqaUBKTNV-1" source="URycCvteFa-Bju452KM6-23">
          <mxGeometry relative="1" as="geometry">
            <mxPoint x="507" y="160" as="targetPoint" />
            <Array as="points">
              <mxPoint x="717" y="160" />
            </Array>
          </mxGeometry>
        </mxCell>
        <mxCell id="URycCvteFa-Bju452KM6-23" value="Turn LED ON" style="rounded=1;whiteSpace=wrap;html=1;" vertex="1" parent="WIyWlLk6GJQsqaUBKTNV-1">
          <mxGeometry x="660" y="300" width="120" height="60" as="geometry" />
        </mxCell>
        <mxCell id="URycCvteFa-Bju452KM6-34" value="Yes" style="edgeStyle=orthogonalEdgeStyle;rounded=0;orthogonalLoop=1;jettySize=auto;html=1;" edge="1" parent="WIyWlLk6GJQsqaUBKTNV-1" source="URycCvteFa-Bju452KM6-30" target="URycCvteFa-Bju452KM6-33">
          <mxGeometry relative="1" as="geometry" />
        </mxCell>
        <mxCell id="URycCvteFa-Bju452KM6-38" value="No" style="edgeStyle=orthogonalEdgeStyle;rounded=0;orthogonalLoop=1;jettySize=auto;html=1;" edge="1" parent="WIyWlLk6GJQsqaUBKTNV-1" source="URycCvteFa-Bju452KM6-30" target="URycCvteFa-Bju452KM6-37">
          <mxGeometry relative="1" as="geometry" />
        </mxCell>
        <mxCell id="URycCvteFa-Bju452KM6-30" value="is counter value &amp;lt; Time OFF value" style="rhombus;whiteSpace=wrap;html=1;" vertex="1" parent="WIyWlLk6GJQsqaUBKTNV-1">
          <mxGeometry x="445.5" y="455" width="123" height="130" as="geometry" />
        </mxCell>
        <mxCell id="URycCvteFa-Bju452KM6-36" style="edgeStyle=orthogonalEdgeStyle;rounded=0;orthogonalLoop=1;jettySize=auto;html=1;" edge="1" parent="WIyWlLk6GJQsqaUBKTNV-1" source="URycCvteFa-Bju452KM6-33">
          <mxGeometry relative="1" as="geometry">
            <mxPoint x="710" y="160" as="targetPoint" />
            <Array as="points">
              <mxPoint x="810" y="425" />
              <mxPoint x="810" y="160" />
            </Array>
          </mxGeometry>
        </mxCell>
        <mxCell id="URycCvteFa-Bju452KM6-33" value="Turn LED OFF" style="rounded=1;whiteSpace=wrap;html=1;" vertex="1" parent="WIyWlLk6GJQsqaUBKTNV-1">
          <mxGeometry x="660" y="490" width="120" height="60" as="geometry" />
        </mxCell>
        <mxCell id="URycCvteFa-Bju452KM6-39" style="edgeStyle=orthogonalEdgeStyle;rounded=0;orthogonalLoop=1;jettySize=auto;html=1;" edge="1" parent="WIyWlLk6GJQsqaUBKTNV-1" source="URycCvteFa-Bju452KM6-37">
          <mxGeometry relative="1" as="geometry">
            <mxPoint x="810" y="420" as="targetPoint" />
          </mxGeometry>
        </mxCell>
        <mxCell id="URycCvteFa-Bju452KM6-37" value="Counter =0" style="rounded=1;whiteSpace=wrap;html=1;" vertex="1" parent="WIyWlLk6GJQsqaUBKTNV-1">
          <mxGeometry x="445.5" y="660" width="120" height="60" as="geometry" />
        </mxCell>
        <mxCell id="URycCvteFa-Bju452KM6-42" value="" style="edgeStyle=orthogonalEdgeStyle;rounded=0;orthogonalLoop=1;jettySize=auto;html=1;" edge="1" parent="WIyWlLk6GJQsqaUBKTNV-1" source="URycCvteFa-Bju452KM6-40" target="URycCvteFa-Bju452KM6-21">
          <mxGeometry relative="1" as="geometry" />
        </mxCell>
        <mxCell id="URycCvteFa-Bju452KM6-40" value="increment counter" style="rounded=1;whiteSpace=wrap;html=1;" vertex="1" parent="WIyWlLk6GJQsqaUBKTNV-1">
          <mxGeometry x="445.5" y="190" width="120" height="60" as="geometry" />
        </mxCell>
      </root>
    </mxGraphModel>
  </diagram>
</mxfile>
